<svg width="85" height="74" viewBox="0 0 85 74" fill="none" xmlns="http://www.w3.org/2000/svg">
<path d="M22.5143 70.5939L15.0424 57.6522L26.0078 38.7116L32.9759 50.7815L74.1099 50.7595L62.4379 70.7726L22.5143 70.5939Z" fill="#FFAD64"/>
<path d="M81.4553 37.9087L73.9834 50.8502L52.0977 50.8245L59.0664 38.7548L38.4803 3.1427L61.6482 3.24436L81.4553 37.9087Z" fill="#ADD4D3"/>
<path d="M23.666 3.07378H38.6099L49.5302 22.0406L35.593 22.0399L15.0453 57.6742L3.54935 37.5595L23.666 3.07378Z" fill="#FB8351"/>
<path fill-rule="evenodd" clip-rule="evenodd" d="M40.4317 0.0773051L40.3871 0H21.9005L0 37.5439L15.0336 63.8483L15.052 63.8163L20.7353 73.6601L64.1993 73.8545L79.463 47.6827H79.3614L85 37.9165L63.4364 0.178227L40.4317 0.0773051ZM54.7321 25.1145H54.8474L43.9803 6.24082L59.8597 6.31045L77.9102 37.9007L72.2604 47.6868L57.4542 47.6946L62.6165 38.7537L54.7321 25.1145ZM36.667 6.14778L44.0768 18.9664L33.8174 18.9661L16.2531 49.4261L15.055 51.4958L7.0991 37.5751L25.4317 6.14778H36.667ZM29.5428 38.6861L37.3689 25.114L47.631 25.1145L55.5164 38.7555L50.3529 47.6985L34.7506 47.707L29.5428 38.6861ZM18.5992 57.6646L21.5766 52.5013L26.0042 44.8533L31.2019 53.8567L46.8019 53.8482L46.7766 53.8919L68.7097 53.9179L60.6771 67.691L24.2939 67.5281L18.5992 57.6646Z" fill="#333237"/>
</svg>
