<svg width="46" height="46" viewBox="0 0 46 46" fill="none" xmlns="http://www.w3.org/2000/svg">
<path d="M19.1667 3.83331V7.66665" stroke="black" stroke-width="2" stroke-linecap="round" stroke-linejoin="round"/>
<path d="M26.8333 3.83331V7.66665" stroke="black" stroke-width="2" stroke-linecap="round" stroke-linejoin="round"/>
<path d="M30.6667 15.3333C31.175 15.3333 31.6625 15.5352 32.022 15.8947C32.3814 16.2541 32.5833 16.7416 32.5833 17.25V32.5833C32.5833 34.6166 31.7756 36.5667 30.3378 38.0045C28.9 39.4422 26.95 40.25 24.9167 40.25H13.4167C11.3833 40.25 9.43329 39.4422 7.99551 38.0045C6.55774 36.5667 5.75 34.6166 5.75 32.5833V17.25C5.75 16.7416 5.95193 16.2541 6.31138 15.8947C6.67082 15.5352 7.15834 15.3333 7.66667 15.3333H34.5C36.5333 15.3333 38.4834 16.141 39.9212 17.5788C41.3589 19.0166 42.1667 20.9667 42.1667 23C42.1667 25.0333 41.3589 26.9834 39.9212 28.4211C38.4834 29.8589 36.5333 30.6666 34.5 30.6666H32.5833" stroke="black" stroke-width="2" stroke-linecap="round" stroke-linejoin="round"/>
<path d="M11.5 3.83331V7.66665" stroke="black" stroke-width="2" stroke-linecap="round" stroke-linejoin="round"/>
</svg>
