<svg width="46" height="46" viewBox="0 0 46 46" fill="none" xmlns="http://www.w3.org/2000/svg">
<path d="M9.80568 7.866C9.77777 7.59903 9.80624 7.32918 9.88925 7.07392C9.97226 6.81866 10.108 6.58368 10.2876 6.3842C10.4672 6.18472 10.6867 6.02519 10.9319 5.91594C11.177 5.80669 11.4424 5.75015 11.7108 5.75H34.2892C34.5578 5.75013 34.8234 5.80671 35.0687 5.91607C35.314 6.02544 35.5336 6.18515 35.7132 6.38484C35.8929 6.58453 36.0285 6.81975 36.1114 7.07525C36.1943 7.33074 36.2226 7.6008 36.1943 7.86792L32.9475 38.7358C32.848 39.6779 32.4033 40.5498 31.6989 41.1833C30.9946 41.8169 30.0807 42.1672 29.1333 42.1667H16.8667C15.9161 42.1719 14.9974 41.8238 14.289 41.1898C13.5807 40.5558 13.1332 39.6812 13.0333 38.7358L9.80568 7.866Z" stroke="black" stroke-width="2" stroke-linecap="round" stroke-linejoin="round"/>
<path d="M11.5 23C13.1588 21.7559 15.1765 21.0833 17.25 21.0833C19.3235 21.0833 21.3412 21.7559 23 23C24.6588 24.2441 26.6765 24.9166 28.75 24.9166C30.8235 24.9166 32.8412 24.2441 34.5 23" stroke="black" stroke-width="2" stroke-linecap="round" stroke-linejoin="round"/>
</svg>
