<svg width="46" height="46" viewBox="0 0 46 46" fill="none" xmlns="http://www.w3.org/2000/svg">
<path d="M11.5 15.3333L14.8542 38.87C14.9844 39.7911 15.445 40.6334 16.1503 41.2399C16.8556 41.8464 17.7573 42.1758 18.6875 42.1667H27.3892C28.3193 42.1758 29.2211 41.8464 29.9264 41.2399C30.6317 40.6334 31.0923 39.7911 31.2225 38.87L34.5 15.3333" stroke="black" stroke-width="2" stroke-linecap="round" stroke-linejoin="round"/>
<path d="M9.58334 15.3333H36.4167" stroke="black" stroke-width="2" stroke-linecap="round" stroke-linejoin="round"/>
<path d="M13.4167 28.75C14.9342 28.1143 16.563 27.7869 18.2083 27.7869C19.8536 27.7869 21.4825 28.1143 23 28.75C24.5175 29.3858 26.1464 29.7132 27.7917 29.7132C29.437 29.7132 31.0658 29.3858 32.5833 28.75" stroke="black" stroke-width="2" stroke-linecap="round" stroke-linejoin="round"/>
<path d="M23 15.3333L24.9167 3.83333H28.75" stroke="black" stroke-width="2" stroke-linecap="round" stroke-linejoin="round"/>
</svg>
