<svg width="46" height="46" viewBox="0 0 46 46" fill="none" xmlns="http://www.w3.org/2000/svg">
<path d="M15.3333 42.1667H30.6667" stroke="black" stroke-width="2" stroke-linecap="round" stroke-linejoin="round"/>
<path d="M13.4167 19.1667H19.1667M32.5833 19.1667H30.0092" stroke="black" stroke-width="2" stroke-linecap="round" stroke-linejoin="round"/>
<path d="M23 28.75V42.1667" stroke="black" stroke-width="2" stroke-linecap="round" stroke-linejoin="round"/>
<path d="M14.0051 14.0051C13.6198 15.6987 13.4225 17.4297 13.4167 19.1666C13.4167 20.8285 13.849 22.4618 14.671 23.9062C15.493 25.3506 16.6764 26.5563 18.1052 27.4052C19.5339 28.254 21.1589 28.7167 22.8205 28.7478C24.4821 28.7789 26.1232 28.3774 27.5827 27.5827M16.5562 5.71356C16.7708 5.11365 17.0047 4.48498 17.25 3.83331H28.75C31.625 11.5 32.5833 15.3333 32.5833 19.1666C32.5833 19.9467 32.4875 20.7172 32.3054 21.4628" stroke="black" stroke-width="2" stroke-linecap="round" stroke-linejoin="round"/>
<path d="M3.83334 3.83331L42.1667 42.1666" stroke="black" stroke-width="2" stroke-linecap="round" stroke-linejoin="round"/>
</svg>
